<svg width="64" height="64" viewBox="0 0 64 64" fill="none" xmlns="http://www.w3.org/2000/svg">
  <!-- Fondo circular con gradiente -->
  <circle cx="32" cy="32" r="30" fill="url(#paint0_linear)" />
  
  <!-- Icono de asignación/tarea -->
  <path d="M44 20H34V16C34 14.9 33.1 14 32 14H22C20.9 14 20 14.9 20 16V20H10C8.9 20 8 20.9 8 22V46C8 47.1 8.9 48 10 48H44C45.1 48 46 47.1 46 46V22C46 20.9 45.1 20 44 20ZM22 16H32V20H22V16ZM44 46H10V22H20V26H34V22H44V46Z" fill="white"/>
  
  <!-- Marcas de verificación (check) -->
  <path d="M16 32L20 36L28 28" stroke="white" stroke-width="2.5" stroke-linecap="round" stroke-linejoin="round"/>
  <path d="M16 40L20 44L28 36" stroke="white" stroke-width="2.5" stroke-linecap="round" stroke-linejoin="round"/>
  
  <!-- Líneas de texto -->
  <rect x="32" y="32" width="12" height="2" rx="1" fill="white"/>
  <rect x="32" y="36" width="8" height="2" rx="1" fill="white"/>
  <rect x="32" y="40" width="10" height="2" rx="1" fill="white"/>
  
  <!-- Definición del gradiente -->
  <defs>
    <linearGradient id="paint0_linear" x1="2" y1="2" x2="64" y2="64" gradientUnits="userSpaceOnUse">
      <stop offset="0%" stop-color="#3f51b5"/>
      <stop offset="100%" stop-color="#1976d2"/>
    </linearGradient>
  </defs>
</svg> 