<svg width="64" height="64" viewBox="0 0 64 64" fill="none" xmlns="http://www.w3.org/2000/svg">
  <!-- Fondo circular con gradiente sutil -->
  <circle cx="32" cy="32" r="30" fill="url(#paint0_linear)" />
  
  <!-- Símbolo minimalista de asignación -->
  <path fill-rule="evenodd" clip-rule="evenodd" d="M40 22H34V20C34 18.9 33.1 18 32 18H22C20.9 18 20 18.9 20 20V22H16C14.9 22 14 22.9 14 24V44C14 45.1 14.9 46 16 46H40C41.1 46 42 45.1 42 44V24C42 22.9 41.1 22 40 22ZM22 20H32V22H22V20Z" fill="white"/>
  
  <!-- Marca de verificación minimalista -->
  <path d="M22 36L26 40L34 32" stroke="white" stroke-width="2.5" stroke-linecap="round" stroke-linejoin="round"/>
  
  <!-- Definición del gradiente -->
  <defs>
    <linearGradient id="paint0_linear" x1="4" y1="4" x2="60" y2="60" gradientUnits="userSpaceOnUse">
      <stop offset="0%" stop-color="#333333"/>
      <stop offset="100%" stop-color="#1C1C1C"/>
    </linearGradient>
  </defs>
</svg> 